# xmcd
#
# Track frame offsets: 
#        150
#        11502
#        27299
#        40076
#        58576
#        70092
#        88006
#        103368
#        116594
#        128587
#        143133
#
# Disc length: 2076 seconds
#
# Revision: 2
# Processed by: cddbd v1.5.2PL0 Copyright (c) Steve Scherf et al.
# Submitted via: ExactAudioCopyFreeDBPlugin 1.0
#
DISCID=90081a0b
DTITLE=Eli "Paperboy" Reed - My Way Home
DYEAR=2016
DGENRE=Rhythm and Blues
TTITLE0=Hold Out
TTITLE1=Your Sins Will Find You Out
TTITLE2=Cut Ya Down
TTITLE3=Movin'
TTITLE4=Tomorrow's Not Promised
TTITLE5=My Way Home
TTITLE6=Eyes on You
TTITLE7=The Strangest Thing
TTITLE8=I'd Rather Be Alone
TTITLE9=A Few More Days
TTITLE10=What Have We Done
EXTD=
EXTT0=
EXTT1=
EXTT2=
EXTT3=
EXTT4=
EXTT5=
EXTT6=
EXTT7=
EXTT8=
EXTT9=
EXTT10=
PLAYORDER=
